<svg xmlns="http://www.w3.org/2000/svg" xmlns:xlink="http://www.w3.org/1999/xlink" viewBox="0 0 50 50"><defs><clipPath id="clip-path" transform="translate(0)"><rect width="50" height="50" fill="none"/></clipPath></defs><title>Asset 1</title><g id="Layer_2" data-name="Layer 2"><g id="Layer_1-2" data-name="Layer 1"><g clip-path="url(#clip-path)"><path d="M11.15,18,.28,2.46A1.56,1.56,0,0,1,1.57,0H12.42A3.47,3.47,0,0,1,15.1,1.52l6.75,11.25A20.21,20.21,0,0,0,11.15,18m31,14.83A17.19,17.19,0,1,1,25,15.63,17.19,17.19,0,0,1,42.19,32.81m-8.77-3.74-5.12-.75L26,23.68a1.12,1.12,0,0,0-2,0l-2.29,4.64-5.12.75A1.12,1.12,0,0,0,16,31l3.7,3.61-.88,5.1a1.12,1.12,0,0,0,1.63,1.18L25,38.47l4.58,2.41a1.12,1.12,0,0,0,1.63-1.18l-.88-5.1L34,31a1.12,1.12,0,0,0-.62-1.91M49.71,2.46,38.85,18a20.22,20.22,0,0,0-10.7-5.21L34.9,1.52A3.12,3.12,0,0,1,37.58,0H48.43a1.56,1.56,0,0,1,1.28,2.46" transform="translate(0)" fill="#fff"/></g></g></g></svg>