<svg xmlns="http://www.w3.org/2000/svg" viewBox="0 0 616.82 452.64"><path fill="#11ac96" d="M616.64,252.83l-.06-.51c-2.6-19.55-7.87-34.51-16.58-47.08a.91.91,0,0,0-.11-.16c-38.18-52.79-97.38-75-139.9-87V87.55L308.34,0,156.7,87.55v30.66c-47.26,14.41-95.13,33.9-130.39,74.19a6.54,6.54,0,0,0-.57.73,260,260,0,0,0-14.51,21.79l-.12.21A94.73,94.73,0,0,0,0,260.55v.28C1,293.09,18.49,323.22,50.68,348c24.13,18.34,50,32.12,81.51,43.36,42.68,15.24,88.19,24,141.15,27l-33.27,17.83,8.81,16.46,63.87-34.22h0a10.13,10.13,0,0,0,1-.61,9.28,9.28,0,0,0,3.41-4.52h0l.06-.17a8.88,8.88,0,0,0,.39-1.72,9.5,9.5,0,0,0,.08-1.19,9.26,9.26,0,0,0-.55-3.14h0a0,0,0,0,1,0,0,9.33,9.33,0,0,0-1-2,0,0,0,0,0,0,0h0a9.57,9.57,0,0,0-2.29-2.38c-10.06-7.35-20.67-14.1-30.93-20.62-10.44-6.64-21.24-13.51-31.32-20.94l-11.08,15c10.6,7.82,21.67,14.86,32.38,21.67l3.25,2.06c-51.88-2.83-96.24-11.27-137.65-26.06C108.85,363.18,84.54,350.27,62,333.15c-19.19-14.76-42.28-39.36-43.36-72.74a76.17,76.17,0,0,1,8.83-36.33c3.69-6.44,8.29-12.9,13.16-19.73,30.89-35.09,73.4-53.22,116-66.6v124.9L308.34,350.2,460,262.65V137.49c39.29,11.57,91.37,32.41,124.72,78.45,6.89,10,11.13,22.25,13.33,38.58.67,9.36-1.6,19.69-7.35,33.51-9,22.07-27.07,41.23-55.18,58.53-46.09,27.83-98.3,44-164.32,50.88L373.13,416c68.84-7.18,123.5-24.16,172.09-53.5,31.69-19.5,52.21-41.56,62.73-67.36C612.64,283.87,617.87,268.88,616.64,252.83ZM298,320.5,177.28,250.77V111.27L298,181ZM187.6,93.47,308.34,23.76,429.08,93.47,308.34,163.18Zm251.81,157.3L318.63,320.5V181l120.78-69.73Z"/></svg>