<svg width="882" height="854" viewBox="0 0 882 854" fill="none" xmlns="http://www.w3.org/2000/svg">
<g opacity="0.02">
<path fill-rule="evenodd" clip-rule="evenodd" d="M440.564 0C562.435 0 672.637 47.9934 752.444 125.352C832.328 202.602 881.585 309.251 881.585 426.39V426.492V426.512C881.585 543.801 832.328 650.407 752.444 727.814C672.637 804.955 562.435 853.019 440.564 853.019H440.517C319.408 853.019 209.544 804.955 129.911 727.656C50.3648 650.372 1.06882 543.801 0.991943 426.572V426.492V426.464C0.991943 309.251 50.3648 202.602 129.998 125.352C209.544 47.9934 319.358 0 440.517 0H440.564ZM513.47 618.868V434.484L293.507 571.275L284.023 577.14V566.11V221.754V221.546C284.023 211.193 285.145 200.99 287.214 191.028C289.215 181.213 292.251 171.771 295.955 162.65C309.634 129.577 334.403 101.403 365.61 84.0446C358.755 85.5897 351.949 87.5063 345.307 89.5316C292.164 105.53 243.399 134.785 204.275 168.818L204.18 168.932H204.12C193.94 177.573 184.194 186.988 174.951 196.915C165.748 206.807 157.086 217.265 149.178 228.113C107.908 284.221 82.9746 353.005 82.9746 426.492V426.611C82.9746 463.625 89.1501 499.376 100.579 532.833C106.262 549.134 113.06 565.024 120.997 580.329C162.144 658.767 233.365 720.627 319.311 751.29L319.408 751.44C327.016 754.341 335.001 756.518 343.182 757.947C351.456 759.471 360.187 760.201 369.342 760.201H369.428C408.767 760.201 444.751 744.167 470.94 718.55V718.585C497.148 692.951 513.342 657.601 513.47 618.925V618.868ZM598.39 631.335L598.661 276.13L367.108 417.945L367.65 234.091C367.891 153.533 434.908 93.5754 513.294 93.5754C530.674 93.5754 549.654 95.9995 565.462 102.152C566.205 102.489 567.038 102.738 567.954 103.092C569.906 103.747 571.91 104.493 573.93 105.264C706.127 157.097 798.115 284.011 798.115 426.492C798.115 530.508 751.855 622.134 677.239 683.732C617.676 732.8 592.472 746.097 519.367 767.99C555.311 746.077 598.304 701.605 598.39 631.335Z" fill="#0D1215"/>
<path fill-rule="evenodd" clip-rule="evenodd" d="M440.564 0C562.435 0 672.637 47.9934 752.444 125.352C832.328 202.602 881.585 309.251 881.585 426.39V426.492V426.512C881.585 543.801 832.328 650.407 752.444 727.814C672.637 804.955 562.435 853.019 440.564 853.019H440.517C319.408 853.019 209.544 804.955 129.911 727.656C50.3648 650.372 1.06882 543.801 0.991943 426.572V426.492V426.464C0.991943 309.251 50.3648 202.602 129.998 125.352C209.544 47.9934 319.358 0 440.517 0H440.564ZM513.47 618.868V434.484L293.507 571.275L284.023 577.14V566.11V221.754V221.546C284.023 211.193 285.145 200.99 287.214 191.028C289.215 181.213 292.251 171.771 295.955 162.65C309.634 129.577 334.403 101.403 365.61 84.0446C358.755 85.5897 351.949 87.5063 345.307 89.5316C292.164 105.53 243.399 134.785 204.275 168.818L204.18 168.932H204.12C193.94 177.573 184.194 186.988 174.951 196.915C165.748 206.807 157.086 217.265 149.178 228.113C107.908 284.221 82.9746 353.005 82.9746 426.492V426.611C82.9746 463.625 89.1501 499.376 100.579 532.833C106.262 549.134 113.06 565.024 120.997 580.329C162.144 658.767 233.365 720.627 319.311 751.29L319.408 751.44C327.016 754.341 335.001 756.518 343.182 757.947C351.456 759.471 360.187 760.201 369.342 760.201H369.428C408.767 760.201 444.751 744.167 470.94 718.55V718.585C497.148 692.951 513.342 657.601 513.47 618.925V618.868ZM598.39 631.335L598.661 276.13L367.108 417.945L367.65 234.091C367.891 153.533 434.908 93.5754 513.294 93.5754C530.674 93.5754 549.654 95.9995 565.462 102.152C566.205 102.489 567.038 102.738 567.954 103.092C569.906 103.747 571.91 104.493 573.93 105.264C706.127 157.097 798.115 284.011 798.115 426.492C798.115 530.508 751.855 622.134 677.239 683.732C617.676 732.8 592.472 746.097 519.367 767.99C555.311 746.077 598.304 701.605 598.39 631.335Z" fill="white"/>
</g>
</svg>
